<svg width="32" height="32" viewBox="0 0 32 32" fill="none" xmlns="http://www.w3.org/2000/svg">
<path fill-rule="evenodd" clip-rule="evenodd" d="M13.7304 1.29289C14.1209 0.902369 14.7541 0.902369 15.1446 1.29289L28.5821 14.7304C28.9726 15.1209 28.9726 15.7541 28.5821 16.1446L16.5519 28.1748C15.9882 28.7302 15.2287 29.0415 14.4375 29.0415C13.6462 29.0415 12.8867 28.7302 12.3231 28.1748L12.3178 28.1696L1.70014 17.5519C1.14478 16.9883 0.833496 16.2288 0.833496 15.4375C0.833496 14.6462 1.1448 13.8868 1.70016 13.3231L1.70534 13.3179L13.7304 1.29289ZM3.12264 14.729C2.93733 14.9182 2.8335 15.1726 2.8335 15.4375C2.8335 15.7024 2.93733 15.9568 3.12264 16.146L3.12478 16.1481L13.7268 26.7502L13.7291 26.7524C13.9183 26.9377 14.1726 27.0415 14.4375 27.0415C14.7024 27.0415 14.9566 26.9377 15.1458 26.7524L15.1481 26.7502L26.4608 15.4375L14.4375 3.41421L3.12264 14.729Z" fill="currentColor"/>
<path fill-rule="evenodd" clip-rule="evenodd" d="M15.5 13C14.6716 13 14 13.6716 14 14.5C14 15.3284 14.6716 16 15.5 16C16.3284 16 17 15.3284 17 14.5C17 13.6716 16.3284 13 15.5 13ZM12 14.5C12 12.567 13.567 11 15.5 11C17.433 11 19 12.567 19 14.5C19 16.433 17.433 18 15.5 18C13.567 18 12 16.433 12 14.5Z" fill="currentColor"/>
<path fill-rule="evenodd" clip-rule="evenodd" d="M29.2071 19.7929L28.5 20.5L27.7929 19.7929C28.1834 19.4024 28.8166 19.4024 29.2071 19.7929ZM28.5 22.0347C28.6337 22.2085 28.776 22.4043 28.9179 22.6172C29.5097 23.5049 30 24.5506 30 25.5C30 25.8978 29.842 26.2794 29.5607 26.5607C29.2794 26.842 28.8978 27 28.5 27C28.1022 27 27.7206 26.842 27.4393 26.5607C27.158 26.2794 27 25.8978 27 25.5C27 24.5506 27.4903 23.5049 28.0821 22.6172C28.224 22.4043 28.3663 22.2085 28.5 22.0347ZM28.5 20.5C27.7929 19.7929 27.7929 19.7929 27.7929 19.7929L27.791 19.7947L27.7883 19.7975L27.7801 19.8058L27.7533 19.8333C27.731 19.8563 27.7 19.8887 27.6615 19.93C27.5846 20.0124 27.4774 20.1304 27.3501 20.2789C27.0964 20.5749 26.7579 20.9979 26.4179 21.5078C25.7597 22.4951 25 23.9494 25 25.5C25 26.4283 25.3687 27.3185 26.0251 27.9749C26.6815 28.6313 27.5717 29 28.5 29C29.4283 29 30.3185 28.6313 30.9749 27.9749C31.6313 27.3185 32 26.4283 32 25.5C32 23.9494 31.2403 22.4951 30.5821 21.5078C30.2421 20.9979 29.9036 20.5749 29.6499 20.2789C29.5226 20.1304 29.4154 20.0124 29.3385 19.93C29.3 19.8887 29.269 19.8563 29.2467 19.8333L29.2199 19.8058L29.2117 19.7975L29.209 19.7947L29.2079 19.7937C29.2079 19.7937 29.2071 19.7929 28.5 20.5Z" fill="currentColor"/>
<path fill-rule="evenodd" clip-rule="evenodd" d="M4.03044 3.03044C4.42097 2.63992 5.05413 2.63992 5.44466 3.03044L14.4447 12.0304C14.8352 12.421 14.8352 13.0541 14.4447 13.4447C14.0541 13.8352 13.421 13.8352 13.0304 13.4447L4.03044 4.44466C3.63992 4.05413 3.63992 3.42097 4.03044 3.03044Z" fill="currentColor"/>
</svg>
