<svg width="104" height="129" viewBox="0 0 104 129" fill="none" xmlns="http://www.w3.org/2000/svg">
<path d="M30.952 63.704C30.184 63.704 29.5227 63.0213 28.968 61.656C28.4133 60.2907 27.8587 58.4347 27.304 56.088L26.088 51.48C20.1573 28.7813 16.5093 14.5947 15.144 8.92002C13.9493 14.3813 12.968 19.0533 12.2 22.936C8.4027 41.0267 5.54403 54.168 3.62403 62.36C3.4107 63.2133 2.85603 63.64 1.96003 63.64C1.06403 63.64 0.616028 63.256 0.616028 62.488C0.616028 62.104 1.34136 58.9893 2.79203 53.144C3.38936 50.712 5.43736 41.1333 8.93603 24.408C12.008 9.51735 13.6293 1.92268 13.8 1.62402C13.928 1.19735 14.248 0.98402 14.76 0.98402C15.2293 0.98402 15.592 1.13335 15.848 1.43202C16.104 1.73068 16.3173 2.24268 16.488 2.96802C17.1707 6.25335 19.2613 14.7013 22.76 28.312C26.3013 41.88 28.968 51.8 30.76 58.072C31.6987 52.7813 33.6827 42.2213 36.712 26.392L41.192 2.39202C41.3627 1.96535 41.6613 1.60268 42.088 1.30402C42.5573 1.00535 43.0053 0.856018 43.432 0.856018C43.7307 0.856018 43.9013 0.941352 43.944 1.11202C44.0293 1.24002 44.072 1.45335 44.072 1.75202C44.072 2.05068 44.072 2.26402 44.072 2.39202C42.28 11.224 40.3813 21.016 38.376 31.768C36.3707 42.52 34.728 51.6933 33.448 59.288C33.3627 59.6293 33.2347 60.248 33.064 61.144C32.8933 62.04 32.6373 62.68 32.296 63.064C31.9973 63.4907 31.5493 63.704 30.952 63.704ZM70.2745 63.576C69.2078 63.576 66.4772 63.4907 62.0825 63.32C57.7305 63.192 54.5305 63.1067 52.4825 63.064L45.5705 62.872L43.3945 63.064C42.1998 63.064 41.6025 62.616 41.6025 61.72C41.6025 61.4213 41.6665 61.1867 41.7945 61.016C42.0932 60.5893 42.5625 59.4373 43.2025 57.56C43.8425 55.64 44.3972 53.656 44.8665 51.608C45.7625 47.64 46.8932 42.392 48.2585 35.864C50.6478 24.5147 52.7172 14.9147 54.4665 7.06402C53.7838 7.02135 53.4425 6.59468 53.4425 5.78402C53.4425 5.01602 54.0612 4.31202 55.2985 3.67202C55.2985 2.34935 55.9385 1.68802 57.2185 1.68802C57.9012 1.68802 58.2638 2.00802 58.3065 2.64802C60.3118 2.17868 63.0852 1.79468 66.6265 1.49602C70.2105 1.19735 73.4958 1.04802 76.4825 1.04802C78.4452 1.04802 79.9172 1.11202 80.8985 1.24002C81.7092 1.36802 82.1145 1.68802 82.1145 2.20002C82.1145 2.79735 81.9438 3.26668 81.6025 3.60802C81.2612 3.90668 80.9198 4.05602 80.5785 4.05602C73.8798 4.05602 68.8665 4.18402 65.5385 4.44002C62.2532 4.69602 59.6932 5.12268 57.8585 5.72002C57.1332 8.23735 56.0452 13.016 54.5945 20.056C53.4425 25.56 52.7385 28.824 52.4825 29.848C54.0612 30.0187 57.3038 30.104 62.2105 30.104C65.6238 30.104 68.2692 30.0613 70.1465 29.976C70.6158 29.976 70.9145 30.0827 71.0425 30.296C71.1705 30.4667 71.2345 30.7013 71.2345 31C71.2345 31.896 70.7865 32.472 69.8905 32.728C68.9945 32.984 67.6718 33.112 65.9225 33.112L51.8425 32.792C51.2025 35.1387 50.1998 39.3413 48.8345 45.4C47.2132 52.7813 46.0398 57.688 45.3145 60.12C48.1732 60.1627 50.5625 60.2053 52.4825 60.248C54.4025 60.2907 55.9812 60.3333 57.2185 60.376L72.5785 60.632C73.1758 60.632 73.5812 60.6107 73.7945 60.568C74.0078 60.5253 74.2212 60.504 74.4345 60.504C75.1598 60.7173 75.5225 61.08 75.5225 61.592C75.5225 62.4027 75.1598 62.936 74.4345 63.192C73.7092 63.448 72.3225 63.576 70.2745 63.576ZM53.032 127.768C52.4773 127.768 52.1147 127.533 51.944 127.064C51.7733 126.595 51.688 125.72 51.688 124.44V121.688C51.688 118.232 51.9867 108.867 52.584 93.592C52.6693 90.136 52.776 86.744 52.904 83.416C53.032 80.088 53.1173 77.3573 53.16 75.224C51.3253 79.32 48.5093 85.016 44.712 92.312C40.9573 99.608 38.6747 104.024 37.864 105.56C35.9867 109.101 34.088 112.749 32.168 116.504C31.7413 117.4 31.208 117.848 30.568 117.848C29.9707 117.848 29.544 117.549 29.288 116.952L26.984 106.328C23.1013 88.9627 20.712 78.0827 19.816 73.688C18.8347 78.6373 17.8107 83.3733 16.744 87.896C15.72 92.376 14.3973 97.944 12.776 104.6C12.1787 107.117 11.4533 110.168 10.6 113.752C9.7467 117.336 8.76536 121.56 7.65603 126.424C7.1867 127.277 6.58936 127.704 5.86403 127.704C5.22403 127.704 4.86136 127.277 4.77603 126.424C5.50136 122.413 6.52536 117.464 7.84803 111.576C9.1707 105.688 10.4933 99.9707 11.816 94.424C13.1387 88.8347 14.0133 85.1013 14.44 83.224L18.344 66.648C18.472 66.2213 18.7067 65.8587 19.048 65.56C19.432 65.2613 19.7947 65.112 20.136 65.112C20.6907 65.112 21.0747 65.4747 21.288 66.2C22.0133 69.3573 23.7627 77.3147 26.536 90.072C28.2 98.392 29.7147 105.389 31.08 111.064C33.0853 107.651 35.56 103.085 38.504 97.368C41.448 91.6507 45.416 83.864 50.408 74.008C51.688 71.3627 52.9253 68.888 54.12 66.584C54.632 65.56 55.2507 65.048 55.976 65.048C56.6587 65.048 57 65.368 57 66.008L56.872 67.736C55.6773 88.0453 54.9947 107.011 54.824 124.632C54.952 124.803 55.016 125.037 55.016 125.336C55.016 125.891 54.8027 126.445 54.376 127C53.992 127.512 53.544 127.768 53.032 127.768ZM78.339 128.408C70.7443 128.408 66.947 121.645 66.947 108.12C66.947 101.933 67.8003 95.9173 69.507 90.072C71.2137 84.184 73.5817 79.4053 76.611 75.736C79.683 72.024 83.1817 70.168 87.107 70.168C89.5817 70.168 91.8217 71.0213 93.827 72.728C94.4243 73.3253 94.723 73.88 94.723 74.392C94.723 74.6907 94.6163 74.9253 94.403 75.096C94.1897 75.2667 93.891 75.352 93.507 75.352C93.0377 75.352 92.5043 75.2027 91.907 74.904C90.0297 73.8373 88.1097 73.304 86.147 73.304C82.9897 73.304 80.1737 75.2667 77.699 79.192C75.2243 83.0747 73.283 87.6827 71.875 93.016C70.5097 98.3493 69.827 102.936 69.827 106.776C69.827 113.176 70.5523 117.891 72.003 120.92C73.4537 123.949 75.7577 125.464 78.915 125.464C82.2003 125.464 85.2083 124.141 87.939 121.496C90.7123 118.808 93.0377 115.373 94.915 111.192C96.7923 106.968 98.2217 102.552 99.203 97.944C100.184 93.592 100.675 89.3253 100.675 85.144C100.675 79.9813 99.8643 75.7573 98.243 72.472C97.0057 70.0827 95.4697 68.632 93.635 68.12C93.251 67.992 92.5897 67.8427 91.651 67.672C90.4137 67.4587 89.4537 67.2453 88.771 67.032C88.0883 66.776 87.747 66.4347 87.747 66.008C87.747 65.1973 88.2803 64.728 89.347 64.6C94.979 64.6 98.7763 66.712 100.739 70.936C102.702 75.16 103.683 80.5147 103.683 87C103.683 91.608 103.064 96.3653 101.827 101.272C100.59 106.136 98.8403 110.637 96.579 114.776C94.2323 119.043 91.4803 122.392 88.323 124.824C85.2083 127.213 81.8803 128.408 78.339 128.408Z" fill="#1F1F1F"/>
</svg>
