<svg width="184" height="65" viewBox="0 0 184 65" fill="none" xmlns="http://www.w3.org/2000/svg">
<path d="M30.952 63.704C30.184 63.704 29.5227 63.0213 28.968 61.656C28.4133 60.2907 27.8587 58.4347 27.304 56.088L26.088 51.48C20.1573 28.7813 16.5093 14.5947 15.144 8.91998C13.9493 14.3813 12.968 19.0533 12.2 22.936C8.40267 41.0267 5.544 54.168 3.624 62.36C3.41067 63.2133 2.856 63.64 1.96 63.64C1.064 63.64 0.615997 63.256 0.615997 62.488C0.615997 62.104 1.34133 58.9893 2.792 53.144C3.38933 50.712 5.43733 41.1333 8.936 24.408C12.008 9.51731 13.6293 1.92264 13.8 1.62398C13.928 1.19731 14.248 0.983975 14.76 0.983975C15.2293 0.983975 15.592 1.13331 15.848 1.43198C16.104 1.73064 16.3173 2.24264 16.488 2.96798C17.1707 6.25331 19.2613 14.7013 22.76 28.312C26.3013 41.88 28.968 51.8 30.76 58.072C31.6987 52.7813 33.6827 42.2213 36.712 26.392L41.192 2.39198C41.3627 1.96531 41.6613 1.60264 42.088 1.30398C42.5573 1.00531 43.0053 0.855973 43.432 0.855973C43.7307 0.855973 43.9013 0.941307 43.944 1.11198C44.0293 1.23998 44.072 1.45331 44.072 1.75198C44.072 2.05064 44.072 2.26398 44.072 2.39198C42.28 11.224 40.3813 21.016 38.376 31.768C36.3707 42.52 34.728 51.6933 33.448 59.288C33.3627 59.6293 33.2347 60.248 33.064 61.144C32.8933 62.04 32.6373 62.68 32.296 63.064C31.9973 63.4907 31.5493 63.704 30.952 63.704ZM70.2745 63.576C69.2078 63.576 66.4772 63.4907 62.0825 63.32C57.7305 63.192 54.5305 63.1067 52.4825 63.064L45.5705 62.872L43.3945 63.064C42.1998 63.064 41.6025 62.616 41.6025 61.72C41.6025 61.4213 41.6665 61.1867 41.7945 61.016C42.0932 60.5893 42.5625 59.4373 43.2025 57.56C43.8425 55.64 44.3972 53.656 44.8665 51.608C45.7625 47.64 46.8932 42.392 48.2585 35.864C50.6478 24.5147 52.7172 14.9147 54.4665 7.06398C53.7838 7.02131 53.4425 6.59464 53.4425 5.78398C53.4425 5.01598 54.0612 4.31198 55.2985 3.67198C55.2985 2.34931 55.9385 1.68798 57.2185 1.68798C57.9012 1.68798 58.2638 2.00798 58.3065 2.64798C60.3118 2.17864 63.0852 1.79464 66.6265 1.49598C70.2105 1.19731 73.4958 1.04798 76.4825 1.04798C78.4452 1.04798 79.9172 1.11198 80.8985 1.23998C81.7092 1.36798 82.1145 1.68798 82.1145 2.19998C82.1145 2.79731 81.9438 3.26664 81.6025 3.60798C81.2612 3.90664 80.9198 4.05598 80.5785 4.05598C73.8798 4.05598 68.8665 4.18398 65.5385 4.43998C62.2532 4.69598 59.6932 5.12264 57.8585 5.71998C57.1332 8.23731 56.0452 13.016 54.5945 20.056C53.4425 25.56 52.7385 28.824 52.4825 29.848C54.0612 30.0187 57.3038 30.104 62.2105 30.104C65.6238 30.104 68.2692 30.0613 70.1465 29.976C70.6158 29.976 70.9145 30.0827 71.0425 30.296C71.1705 30.4667 71.2345 30.7013 71.2345 31C71.2345 31.896 70.7865 32.472 69.8905 32.728C68.9945 32.984 67.6718 33.112 65.9225 33.112L51.8425 32.792C51.2025 35.1387 50.1998 39.3413 48.8345 45.4C47.2132 52.7813 46.0398 57.688 45.3145 60.12C48.1732 60.1627 50.5625 60.2053 52.4825 60.248C54.4025 60.2907 55.9812 60.3333 57.2185 60.376L72.5785 60.632C73.1758 60.632 73.5812 60.6107 73.7945 60.568C74.0078 60.5253 74.2212 60.504 74.4345 60.504C75.1598 60.7173 75.5225 61.08 75.5225 61.592C75.5225 62.4027 75.1598 62.936 74.4345 63.192C73.7092 63.448 72.3225 63.576 70.2745 63.576ZM132.595 63.768C132.04 63.768 131.677 63.5333 131.507 63.064C131.336 62.5947 131.251 61.72 131.251 60.44V57.688C131.251 54.232 131.549 44.8667 132.147 29.592C132.232 26.136 132.339 22.744 132.467 19.416C132.595 16.088 132.68 13.3573 132.723 11.224C130.888 15.32 128.072 21.016 124.275 28.312C120.52 35.608 118.237 40.024 117.427 41.56C115.549 45.1013 113.651 48.7493 111.731 52.504C111.304 53.4 110.771 53.848 110.131 53.848C109.533 53.848 109.107 53.5493 108.851 52.952L106.547 42.328C102.664 24.9627 100.275 14.0827 99.3785 9.68798C98.3972 14.6373 97.3732 19.3733 96.3065 23.896C95.2825 28.376 93.9598 33.944 92.3385 40.6C91.7412 43.1173 91.0158 46.168 90.1625 49.752C89.3092 53.336 88.3278 57.56 87.2185 62.424C86.7492 63.2773 86.1518 63.704 85.4265 63.704C84.7865 63.704 84.4238 63.2773 84.3385 62.424C85.0638 58.4133 86.0878 53.464 87.4105 47.576C88.7332 41.688 90.0558 35.9707 91.3785 30.424C92.7012 24.8347 93.5758 21.1013 94.0025 19.224L97.9065 2.64798C98.0345 2.22131 98.2692 1.85864 98.6105 1.55998C98.9945 1.26131 99.3572 1.11198 99.6985 1.11198C100.253 1.11198 100.637 1.47464 100.851 2.19998C101.576 5.35731 103.325 13.3147 106.099 26.072C107.763 34.392 109.277 41.3893 110.643 47.064C112.648 43.6507 115.123 39.0853 118.067 33.368C121.011 27.6507 124.979 19.864 129.971 10.008C131.251 7.36264 132.488 4.88798 133.683 2.58398C134.195 1.55998 134.813 1.04798 135.539 1.04798C136.221 1.04798 136.563 1.36798 136.563 2.00798L136.435 3.73598C135.24 24.0453 134.557 43.0107 134.387 60.632C134.515 60.8027 134.579 61.0373 134.579 61.336C134.579 61.8907 134.365 62.4453 133.939 63C133.555 63.512 133.107 63.768 132.595 63.768ZM157.902 64.408C150.307 64.408 146.51 57.6453 146.51 44.12C146.51 37.9333 147.363 31.9173 149.07 26.072C150.776 20.184 153.144 15.4053 156.174 11.736C159.246 8.02398 162.744 6.16798 166.67 6.16798C169.144 6.16798 171.384 7.02131 173.39 8.72798C173.987 9.32531 174.286 9.87998 174.286 10.392C174.286 10.6907 174.179 10.9253 173.966 11.096C173.752 11.2667 173.454 11.352 173.07 11.352C172.6 11.352 172.067 11.2027 171.47 10.904C169.592 9.83731 167.672 9.30398 165.71 9.30398C162.552 9.30398 159.736 11.2667 157.262 15.192C154.787 19.0747 152.846 23.6827 151.438 29.016C150.072 34.3493 149.39 38.936 149.39 42.776C149.39 49.176 150.115 53.8907 151.566 56.92C153.016 59.9493 155.32 61.464 158.478 61.464C161.763 61.464 164.771 60.1413 167.502 57.496C170.275 54.808 172.6 51.3733 174.478 47.192C176.355 42.968 177.784 38.552 178.766 33.944C179.747 29.592 180.238 25.3253 180.238 21.144C180.238 15.9813 179.427 11.7573 177.806 8.47198C176.568 6.08264 175.032 4.63198 173.198 4.11998C172.814 3.99198 172.152 3.84264 171.214 3.67198C169.976 3.45864 169.016 3.24531 168.334 3.03198C167.651 2.77598 167.31 2.43464 167.31 2.00798C167.31 1.19731 167.843 0.727975 168.91 0.599976C174.542 0.599976 178.339 2.71198 180.302 6.93598C182.264 11.16 183.246 16.5147 183.246 23C183.246 27.608 182.627 32.3653 181.39 37.272C180.152 42.136 178.403 46.6373 176.142 50.776C173.795 55.0427 171.043 58.392 167.886 60.824C164.771 63.2133 161.443 64.408 157.902 64.408Z" fill="#1F1F1F"/>
</svg>
