<svg width="32" height="32" viewBox="0 0 32 32" fill="none" xmlns="http://www.w3.org/2000/svg">
<path fill-rule="evenodd" clip-rule="evenodd" d="M28.4875 9.51251C29.0398 9.51251 29.4875 9.96023 29.4875 10.5125V18.5125C29.4875 19.0648 29.0398 19.5125 28.4875 19.5125H20.4875C19.9353 19.5125 19.4875 19.0648 19.4875 18.5125C19.4875 17.9602 19.9353 17.5125 20.4875 17.5125H27.4875V10.5125C27.4875 9.96023 27.9353 9.51251 28.4875 9.51251Z" fill="currentColor"/>
<path fill-rule="evenodd" clip-rule="evenodd" d="M18.1471 12.2071C16.0128 11.7824 13.8004 12.0002 11.7899 12.8331C9.77944 13.666 8.06118 15.0765 6.85254 16.8862C5.6439 18.6959 4.9992 20.8234 5 22.9996C5.00021 23.5519 4.55266 23.9998 4.00037 24C3.44809 24.0002 3.00021 23.5526 3 23.0004C2.99905 20.4285 3.76097 17.9142 5.18936 15.7754C6.61776 13.6367 8.64843 11.9697 11.0245 10.9854C13.4005 10.0011 16.0151 9.7436 18.5375 10.2456C21.0598 10.7476 23.3765 11.9864 25.1946 13.8054L29.1946 17.8054C29.5851 18.1959 29.5851 18.8291 29.1946 19.2196C28.8041 19.6101 28.1709 19.6101 27.7804 19.2196L23.7804 15.2196C22.242 13.6804 20.2814 12.6319 18.1471 12.2071Z" fill="currentColor"/>
</svg>
