<svg width="32" height="32" viewBox="0 0 32 32" fill="none" xmlns="http://www.w3.org/2000/svg">
<path fill-rule="evenodd" clip-rule="evenodd" d="M3.51245 9.51251C4.06474 9.51251 4.51245 9.96023 4.51245 10.5125V17.5125H11.5125C12.0647 17.5125 12.5125 17.9602 12.5125 18.5125C12.5125 19.0648 12.0647 19.5125 11.5125 19.5125H3.51245C2.96017 19.5125 2.51245 19.0648 2.51245 18.5125V10.5125C2.51245 9.96023 2.96017 9.51251 3.51245 9.51251Z" fill="currentColor"/>
<path fill-rule="evenodd" clip-rule="evenodd" d="M13.4625 10.2456C15.9848 9.7436 18.5995 10.0011 20.9755 10.9854C23.3515 11.9697 25.3822 13.6367 26.8106 15.7754C28.239 17.9142 29.0009 20.4285 29 23.0004C28.9997 23.5526 28.5519 24.0002 27.9996 24C27.4473 23.9998 26.9997 23.5519 27 22.9996C27.0008 20.8234 26.3561 18.6959 25.1474 16.8862C23.9388 15.0765 22.2205 13.666 20.21 12.8331C18.1995 12.0002 15.9872 11.7824 13.8528 12.2071C11.7185 12.6319 9.75814 13.6802 8.21974 15.2194L4.21956 19.2196C3.82903 19.6101 3.19587 19.6101 2.80534 19.2196C2.41482 18.8291 2.41482 18.1959 2.80534 17.8054L6.80516 13.8056C8.62323 11.9866 10.9402 10.7476 13.4625 10.2456Z" fill="currentColor"/>
</svg>
