<svg width="32" height="32" viewBox="0 0 32 32" fill="none" xmlns="http://www.w3.org/2000/svg">
<path fill-rule="evenodd" clip-rule="evenodd" d="M25.2094 6.68582C24.247 5.76716 22.6674 5.79669 21.682 6.78207L18.232 10.2321C17.8415 10.6226 17.2083 10.6226 16.8178 10.2321L16.2083 9.62262C16.0191 9.43732 15.7648 9.33349 15.4999 9.33349C15.235 9.33349 14.9807 9.43732 14.7914 9.62262L13.9141 10.5L13.9195 10.5053L21.4999 18.0858L21.5053 18.0803L22.3772 17.2084C22.5625 17.0192 22.6664 16.7649 22.6664 16.5C22.6664 16.235 22.5625 15.9807 22.3772 15.7915L21.7678 15.1821C21.3773 14.7915 21.3773 14.1584 21.7678 13.7679L25.2663 10.2693C25.5015 10.033 25.6877 9.75137 25.8126 9.44225C25.9377 9.13285 25.9996 8.80154 25.9946 8.46786C25.9896 8.13417 25.9178 7.80486 25.7836 7.49935C25.6493 7.19383 25.4552 6.9183 25.2127 6.68898L25.2094 6.68582ZM23.8865 14.4775C24.3874 15.0304 24.6664 15.7509 24.6664 16.5C24.6664 17.2912 24.3551 18.0507 23.7997 18.6143L23.7945 18.6196L22.9218 19.4923C22.7363 19.6798 22.5156 19.8287 22.2723 19.9306C22.0277 20.033 21.7651 20.0858 21.4999 20.0858C21.2347 20.0858 20.9721 20.033 20.7275 19.9306C20.4842 19.8287 20.2634 19.6798 20.078 19.4922L12.5076 11.9218C12.3201 11.7364 12.1711 11.5157 12.0692 11.2724C11.9668 11.0278 11.9141 10.7652 11.9141 10.5C11.9141 10.2347 11.9668 9.97217 12.0692 9.72753C12.1711 9.48427 12.3201 9.26357 12.5075 9.07812L13.3855 8.20013C13.9491 7.64478 14.7086 7.33349 15.4999 7.33349C16.2489 7.33349 16.9694 7.61245 17.5223 8.1133L20.2678 5.36786C21.9819 3.65376 24.8011 3.53284 26.5887 5.23755C27.0244 5.65 27.3731 6.1454 27.6145 6.69462C27.8562 7.24455 27.9854 7.8373 27.9944 8.43794C28.0033 9.03857 27.892 9.63492 27.6668 10.1918C27.4417 10.7487 27.1073 11.2549 26.6835 11.6806L23.8865 14.4775Z" fill="currentColor"/>
<path fill-rule="evenodd" clip-rule="evenodd" d="M14.8821 11.4679C15.2727 11.8585 15.2727 12.4916 14.8821 12.8822L7.8779 19.8864C7.50414 20.2557 7.2353 20.7178 7.099 21.2252C6.96269 21.7327 6.9638 22.2672 7.10222 22.7741C7.16226 22.994 7.14538 23.2278 7.05437 23.4368L5.88977 26.1111L8.56295 24.9459C8.77202 24.8547 9.00595 24.8378 9.22596 24.8979C9.73284 25.0363 10.2674 25.0374 10.7749 24.9011C11.2823 24.7648 11.7444 24.496 12.1137 24.1222L12.1179 24.1179L19.1179 17.1179C19.5085 16.7274 20.1416 16.7274 20.5321 17.1179C20.9227 17.5085 20.9227 18.1416 20.5321 18.5322L13.5342 25.5301C12.9159 26.155 12.1427 26.6046 11.2937 26.8326C10.563 27.0289 9.79873 27.0551 9.05921 26.9113L6.43921 28.0533L6.43816 28.0538C6.07359 28.2135 5.66967 28.2607 5.27809 28.1895C4.88613 28.1182 4.52438 27.9315 4.23921 27.6533L4.93755 26.9375L4.23604 27.6502C3.98679 27.4049 3.81864 27.0891 3.75419 26.7454C3.69017 26.404 3.7315 26.0512 3.87258 25.734L5.08884 22.9411C4.94501 22.2015 4.97118 21.4372 5.16746 20.7064C5.39552 19.8574 5.84502 19.0842 6.46996 18.4659L13.4679 11.4679C13.8585 11.0774 14.4916 11.0774 14.8821 11.4679Z" fill="currentColor"/>
</svg>
