<svg width="32" height="32" viewBox="0 0 32 32" fill="none" xmlns="http://www.w3.org/2000/svg">
<path fill-rule="evenodd" clip-rule="evenodd" d="M8.62993 13.5709C10.0004 13.0032 11.5084 12.8547 12.9632 13.1441C14.4181 13.4335 15.7545 14.1478 16.8034 15.1967C17.8522 16.2456 18.5666 17.582 18.8559 19.0368C19.1453 20.4917 18.9968 21.9997 18.4292 23.3701C17.8615 24.7406 16.9002 25.9119 15.6668 26.736C14.4335 27.5601 12.9834 28 11.5001 28H2.50006C2.07537 28 1.697 27.7318 1.55643 27.331C1.4167 26.9327 1.54221 26.4898 1.86942 26.2239L1.87609 26.2183C1.88511 26.2105 1.90248 26.1953 1.92703 26.1725C1.97616 26.1269 2.05381 26.0511 2.15074 25.9445C2.34476 25.7311 2.61466 25.3954 2.88812 24.9305C3.43164 24.0065 4.00006 22.5549 4.00006 20.5C4.00006 19.0166 4.43992 17.5666 5.26403 16.3332C6.08815 15.0999 7.25949 14.1386 8.62993 13.5709ZM12.5731 15.1057C11.5062 14.8935 10.4003 15.0024 9.3953 15.4187C8.3903 15.8349 7.53132 16.5399 6.92697 17.4444C6.32263 18.3488 6.00006 19.4122 6.00006 20.5C6.00006 22.9451 5.31848 24.7435 4.61199 25.9445C4.60103 25.9632 4.59006 25.9817 4.57909 26H11.5001C12.5879 26 13.6512 25.6774 14.5557 25.0731C15.4602 24.4687 16.1651 23.6098 16.5814 22.6048C16.9977 21.5998 17.1066 20.4939 16.8944 19.427C16.6822 18.3601 16.1583 17.3801 15.3891 16.6109C14.62 15.8417 13.6399 15.3179 12.5731 15.1057Z" fill="currentColor"/>
<path fill-rule="evenodd" clip-rule="evenodd" d="M20.564 8.73097C18.1147 10.9239 16.0359 13.5254 14.8534 15.1205C14.5246 15.5642 13.8983 15.6572 13.4546 15.3283C13.0109 14.9994 12.9179 14.3731 13.2468 13.9295C14.4643 12.2871 16.6356 9.56364 19.23 7.2409C21.7793 4.95853 24.9415 2.875 28.1251 2.875C28.6774 2.875 29.1251 3.32272 29.1251 3.875C29.1251 7.05859 27.0416 10.2208 24.7592 12.7701C22.4365 15.3645 19.713 17.5358 18.0706 18.7533C17.627 19.0822 17.0007 18.9892 16.6718 18.5455C16.3429 18.1019 16.4359 17.4756 16.8796 17.1467C18.4747 15.9642 21.0763 13.8855 23.2691 11.4361C25.1628 9.32097 26.6175 7.07585 27.0161 4.98401C24.9243 5.38264 22.6791 6.83732 20.564 8.73097Z" fill="currentColor"/>
<path fill-rule="evenodd" clip-rule="evenodd" d="M15.754 10.8335C16.0255 10.3525 16.6354 10.1827 17.1164 10.4541C18.9688 11.4995 20.5004 13.0311 21.5458 14.8835C21.8173 15.3645 21.6474 15.9744 21.1664 16.2459C20.6854 16.5173 20.0755 16.3475 19.804 15.8665C18.9377 14.3314 17.6685 13.0622 16.1334 12.1959C15.6525 11.9244 15.4826 11.3145 15.754 10.8335Z" fill="currentColor"/>
</svg>
