<svg width="24" height="24" viewBox="0 0 24 24" fill="none" xmlns="http://www.w3.org/2000/svg">
<path d="M17 2.75H7C4.65279 2.75 2.75 4.65279 2.75 7V17C2.75 19.3472 4.65279 21.25 7 21.25H17C19.3472 21.25 21.25 19.3472 21.25 17V7C21.25 4.65279 19.3472 2.75 17 2.75Z" stroke="currentColor" stroke-width="1.5"/>
<path fill-rule="evenodd" clip-rule="evenodd" d="M16.711 8.96075C16.711 8.54654 16.3752 8.21075 15.961 8.21075H13.1325C12.7183 8.21075 12.3825 8.54654 12.3825 8.96075C12.3825 9.37497 12.7183 9.71075 13.1325 9.71075H14.1503L11.7346 12.1265L10.3041 10.696C10.0112 10.4031 9.53634 10.4031 9.24345 10.696L6.06147 13.878C5.76857 14.1709 5.76857 14.6458 6.06147 14.9387C6.35436 15.2316 6.82923 15.2316 7.12213 14.9387L9.77378 12.287L11.2042 13.7175C11.4971 14.0104 11.972 14.0104 12.2649 13.7175L15.211 10.7714V11.7892C15.211 12.2034 15.5468 12.5392 15.961 12.5392C16.3752 12.5392 16.711 12.2034 16.711 11.7892V8.96075Z" fill="currentColor"/>
</svg>
